<?xml version="1.0" encoding="UTF-8"?>
<svg id="Vrstva_1" xmlns="http://www.w3.org/2000/svg" version="1.1" viewBox="0 0 553 488.5">
  <!-- Generator: Adobe Illustrator 29.7.1, SVG Export Plug-In . SVG Version: 2.1.1 Build 8)  -->
  <defs>
    <style>
      .st0 {
        fill: #565656;
        stroke: #fff;
        stroke-miterlimit: 10;
        stroke-width: .2px;
      }
    </style>
  </defs>
  <path class="st0" d="M344.5,85.9c-1.8-17.6-18.7-32.7-35.6-35.6s-9.9,0-13.8-3.3c-5.6-4.7,1.1-10.2,6.5-10.3,27.1-.3,54.5,23.5,56.4,50.9v210.9c13.6-.4,25.7,3.7,37.6,10,18.3,9.7,26.1,15.8,48.5,13.9,21.5-1.8,32.8-16,52.1-21.2s15.9-3.3,21.7-2.6c8,.9,8.3,12.1-1.3,13-21.9,1.9-24.2,5.1-42.5,14.9-16.4,8.8-34.5,11.2-52.9,7.6-21.8-4.2-35.2-21.2-58.3-22.5-14.4-.8-24.9,1.1-37.5,7.8-14.6,7.7-23.2,14.6-40.8,15.7-26.2,1.6-34.4-4.3-55.9-15.7-21-11.1-42.7-11.1-63.7,0s-29.1,17.3-55.5,15.7c-26.1-1.5-40.1-20.5-63.7-23.4-3.3-.4-9.8,0-12.2-1.2-6-3.1-4.2-11.1,2.2-11.8,9.8-1.1,24.6,2.9,33.5,7.2,17.8,8.5,25.1,17,47,17.1,29.3,0,42.4-20.9,69.5-23.8,4.2-.4,9.1-.8,13.2,0V86.3c0-7.1-7.4-18.3-12.8-22.8-8.4-7-16.9-7.7-27.2-8.8s-8-2-7.8-6.9c.5-8.4,13.1-6.1,18.5-5.1,16.7,2.9,31.6,12.7,38.7,28.3s3.8,31.3,4.4,46.9h132v-32ZM345.3,130.9h-132.8v51.9h132.8v-51.9ZM345.3,196.3h-132.8v54.5h132.8v-54.5ZM345.3,263.7h-132.8v36.4c20,3.7,33.5,19,53.9,21.7,14.2,1.9,27.8.2,40.7-6.1s14.5-9.8,22.8-12.8,10.2-2.9,15.5-3.6v-35.6Z"/>
  <path class="st0" d="M36.9,416.7c5.6-.9,16.7,1,22.3,2.6,22.7,6.4,31.7,21.5,58.9,21.5,20.5,0,28.2-7.2,44.8-15.9,22.6-11.9,49.8-10.9,72.2.8,16.1,8.5,23.7,15.1,43.5,15.1,20.2,0,27.8-7,44.2-15.6,20.7-10.9,46.7-11.7,68-1.8,18.4,8.5,25.5,17.5,48.2,17.5,28.7,0,40.7-19.2,66.3-23.3,3.7-.6,11.8-1.6,15.2-.8,5.2,1.2,6.8,8.6,2,11.7-2.5,1.7-11.2,1.4-14.8,2-17.6,2.7-28.3,14.3-44,19.6s-31.9,4.9-45.9,1c-21.9-6-31.9-21.1-57.6-21.6-20.9-.4-28.1,5.9-45,14.9-23.4,12.4-50.3,12.1-73.6-.1s-25.6-16.1-49-14.8c-22.9,1.3-35.2,17.3-55.9,22s-38.4,1.8-55.6-7.3c-18.3-9.7-20.4-12.8-42.2-14.7-9.8-.9-9.2-11.7-2-12.9Z"/>
  <path class="st0" d="M35.2,337.5c6-1.2,17.9,1,23.9,2.7,19.8,5.8,30.3,19.7,53.1,21.1,24.8,1.5,32-7.3,51.8-16.9,14.5-7,31.9-8.7,47.8-6,23,4,36.4,21.5,60.9,22.9,24.1,1.4,31.3-6.7,50.6-16.4,22.9-11.6,49.9-9.8,72.2,2.1,17.5,9.3,25.3,15.6,46.9,14.3,24.7-1.4,37.6-19,60.9-22.9s12.8-1.7,16.5-.9c2.2.5,4.6,4.1,4.5,6.4-.2,8.1-10.6,6.3-16.1,7-20.6,2.6-33.3,17.9-53.5,21.9-18.8,3.8-37.1,1.2-53.9-7.7-19-10-26-16.1-49.4-14.8-22.3,1.3-33.7,16.2-53.6,21.4-18.5,4.8-38.9,2.6-55.9-6-18-9.2-25.7-16.7-48-15.7-20.8.9-27.9,9.6-44.9,17.6-15.6,7.3-36.4,8.5-52.9,4-17.1-4.6-29.4-17.6-47.3-20.6-4.3-.7-8.8-.4-12.8-1-7.2-1-7.3-11.1-.8-12.4Z"/>
  <path class="st0" d="M31.7,379.1c2.3-2.5,8.1-2,11.4-1.8,27.4,1.5,42,22.3,68.3,23.9,24.4,1.5,31.5-6.6,51.1-16.4,16.2-8.1,37.2-9.8,54.7-5.2,20.3,5.4,31.7,20.2,54.7,21.6,23.6,1.4,31.3-6.1,50.2-16,16.8-8.8,38.6-10.4,56.8-5.2,19.8,5.7,30.8,19.9,53.4,21.2,26.3,1.5,32.6-8.1,53.6-17.7,8.1-3.7,24.3-7.9,33.1-6.1,3.3.7,5.7,4.8,4.5,8.1-2.1,5.8-9.4,4.2-14.4,4.8-15.1,1.8-22,7.7-34.6,14.4-24.4,13.1-51.1,12.3-75.3-.6-14.7-7.8-21.7-13.7-39.7-14.3-21.6-.7-29,6-46.5,15.2-22.7,11.9-49.5,11.8-72.2,0-16.5-8.6-23.6-15.4-44-15.4-19.8,0-27.3,6.4-43.4,15-22.4,11.9-49.2,12.5-71.9,1-12-6.1-20.4-13.4-34.6-15.2-4.3-.6-12.3.3-15.2-2.8-2.3-2.5-2.1-6,.1-8.4Z"/>
</svg>