<?xml version="1.0" encoding="UTF-8"?>
<svg id="Vrstva_1" data-name="Vrstva 1" xmlns="http://www.w3.org/2000/svg" viewBox="0 0 552.99 595.28">
  <defs>
    <style>
      .cls-1 {
        fill: #6d6d6d;
      }
    </style>
  </defs>
  <path class="cls-1" d="M83.93,47.35c12.91,3.58,24.26,10.04,30.71,22.23,6.45,12.19,2.75,30.11,1.79,46.96-1.19,20.31.84,40.63,3.82,60.59h306.75c2.63-.48,4.54-6.93,5.74-9.56,4.78-11.11,8.01-29.04,14.82-37.64,18.52-23.42,55.81-7.17,51.03,22.47-4.78,29.64-12.67,20.55-17.69,30.95,18.76,12.91,9.68,35.61,7.65,54.25,13.74,6.93,13.74,19.84,10.16,33.1-2.63,9.32-8.6,13.38-17.69,15.65l-.84,1.08-25.81,163.12c-1.79,6.09,3.11,5.74,6.57,9.32,8.6,8.96,6.45,29.76-2.39,37.76s-11.59,4.78-12.43,5.74-3.7,10.04-5.86,13.26c-7.29,11.35-19.84,18.52-33.22,19.24H144.75c-18.64-2.51-32.62-14.94-37.04-33.34-22.23-.96-28.2-39.2-7.53-46.96v-1.31c.12,0-26.65-168.49-26.65-168.49-13.74.48-20.08-6.09-22.59-18.88s-1.91-26.29,13.86-29.87v-4.18c-5.97-28.68-7.29-59.03-13.5-87.47s-32.86-67.76,4.78-92.13l15.53-5.97h12.43l-.12.12ZM105.91,177.13c-2.99-12.43-3.47-24.98-3.82-37.64-.36-12.67-.6-17.21,0-25.81.96-13.74,6.57-27.37-2.03-39.91-9.08-13.14-29.04-15.89-40.87-4.9-17.69,16.25-3.94,36.69,1.43,54.85,5.14,17.33,8.48,35.37,10.04,53.42,0,0,35.25,0,35.25,0ZM467.28,133.51c-12.19,2.27-14.22,22.35-18.16,32.5-2.87,7.41-6.09,14.82-9.44,22.11-15.3,33.46-33.94,72.89-51.86,104.68-12.67,22.35-31.67,43.26-52.7,57.96-29.4,20.67-61.42,23.66-78.39,59.87-38.72,82.33,64.53,152,123.92,82.93,36.45-42.42,10.75-75.28,10.4-121.17-.36-45.89,7.29-55.69,19.24-81.98,17.21-37.76,39.2-84.49,60.94-119.38,3.47-5.62,11.35-13.86,12.79-19.72,2.51-10.16-6.45-19.6-16.73-17.69v-.12ZM128.86,191.47h-55.33l6.69,44.81h53.42l-4.78-44.81ZM199.48,191.47h-54.85l-1.19,2.15,4.54,42.66h53.42l-1.91-44.81ZM269.99,236.28v-43.38l-1.43-1.43h-54.85l1.91,44.81h54.37ZM338.7,191.47h-54.37v44.81h51.5l2.87-44.81ZM410.28,191.47h-57.24l-1.91,44.81h48.16c9.68-13.26,9.8-29.16,10.99-44.81ZM474.21,236.28c-.6-12.79,9.44-29.52-.48-40.03l-20.55,40.03h21.03ZM392.11,251.57H66.36c-4.42,0-1.08,16.13.72,18.88l5.02,1.19,310.7-.6,9.44-19.48h-.12ZM437.04,271.65h43.38c4.78,0,7.05-16.85,3.82-20.08h-38.6l-8.6,20.08ZM153.59,285.99c-1.19,7.17,5.97,25.45-1.43,29.64-13.98,7.89-11.71-20.31-12.91-27.25s-.48-1.79-1.43-2.39h-50.07l26.77,167.9h41.94l-11.23-111.85c2.03-7.17,11.83-7.41,13.86,0l11.71,111.85h41.94l-8.6-167.9h-50.55ZM269.99,285.99h-51.5l8.6,165.51,1.55,2.27h6.09c0,.12,0-18.52,0-18.52,0-4.54,2.99-14.7,4.54-19.36,5.5-17.09,16.73-33.46,30.83-44.57v-85.44l-.12.12ZM333.92,285.99h-49.59v75.4c16.13-7.29,32.62-14.34,46.25-25.81l3.35-49.59h0ZM375.02,285.99h-26.77l-1.91,36.21c11.71-10.16,20.55-23.18,28.56-36.21h.12ZM465.6,285.99h-37.16c-16.37,31.55-24.38,63.81-21.99,99.66,1.55,22.82,12.55,45.05,7.65,68.23h24.38l27.25-167.9h-.12ZM244.29,488.18l-7.17-19.12-2.87-.96h-126.91c-8.96,0-5.02,20.08,0,20.08h136.95ZM402.63,488.18h44.33c2.87,0,10.28-18.64-1.91-20.08-6.81-.84-24.86-.84-31.55,0s-2.51,0-3.23,1.55l-7.77,18.52h.12ZM163.15,521.64c-.36-5.97,0-13.98-2.39-19.12h-37.64c1.19,8.48,14.34,19.12,22.47,19.12h17.69-.12ZM215.61,502.52h-39.08l1.91,19.12h38.12l-.96-19.12ZM230.91,521.64h37.64l1.43-2.39-16.73-16.73h-21.99c-2.39,0-.48,5.62-.48,7.17,0,3.94-.12,8.01,0,11.95h.12ZM430.35,502.52h-38.12l-1.91,19.12h17.69c1.55,0,8.25-2.39,10.04-3.35,5.62-2.87,11.71-9.32,12.31-15.77h0Z"/>
  <path class="cls-1" d="M319.46,374.9c44.93-5.02,78.03,33.58,70.5,77.2-.96,5.86-3.82,20.67-11.95,19.12-8.13-1.55-2.63-16.85-2.03-24.62,5.02-63.69-72.89-78.51-97.51-24.98-19.84,43.02,17.57,90.1,63.45,71.1,6.81-2.75,14.58-11.59,21.03-6.45,11.59,9.2-16.49,20.67-23.06,22.47-59.63,16.49-100.86-46.96-71.94-98.59,10.16-18.16,30.59-32.98,51.5-35.37v.12Z"/>
</svg>