<?xml version="1.0" encoding="UTF-8"?>
<svg id="Vrstva_1" xmlns="http://www.w3.org/2000/svg" version="1.1" viewBox="0 0 553 490.2">
  <!-- Generator: Adobe Illustrator 29.7.1, SVG Export Plug-In . SVG Version: 2.1.1 Build 8)  -->
  <defs>
    <style>
      .st0 {
        fill: #565656;
        stroke: #fff;
        stroke-miterlimit: 10;
        stroke-width: .2px;
      }
    </style>
  </defs>
  <path class="st0" d="M269.8,83.1c87.2-2.6,172.4,28.3,237.4,85.6,5,4.4,15.6,13.4,19.2,18.5,5.1,7.3-3,15.7-10.3,11.4-3.2-1.9-9.6-9.4-12.9-12.3-132-120.3-327.9-116.3-455.5,8.2-2.7,2.6-6.4,8.2-10.3,8.8-7.7,1.1-12.4-6.6-7.7-12.8s11-11.2,15.2-15.2c60.8-57.1,141.2-89.7,224.8-92.2Z"/>
  <path class="st0" d="M270.5,179.6c65.9-2.4,130.7,21.6,178.6,66.6,2.6,2.5,10.1,9.2,10.6,12.5.8,5.8-3,9.9-8.9,9.3-4.1-.4-10.1-8.2-13.3-11.2-90.7-83.3-227.9-81.9-317.6,2-3.2,3-8.5,9.6-11.8,11.6-6.2,4-13.5-1.8-11.7-9.1.8-3.3,13.7-15.1,17-18.1,43.2-39,98.7-61.6,157.2-63.7Z"/>
  <path class="st0" d="M387.1,338c-2.4,2.3-6,2.8-9,1.4s-9.2-8.9-12-11.4c-50.4-44.4-127.2-44.2-177,1.1-2.8,2.6-9.2,10.3-12.4,11-6.5,1.3-11.7-4.5-9.2-10.7s14-14.6,17.8-17.7c57.7-45.9,140.2-42.8,194.4,7.1,4.7,4.3,14.6,12.5,7.5,19.1Z"/>
  <path class="st0" d="M277.5,381.7c21.9-.5,23.1,32.8,1.4,33.9-22.5,1.2-23.9-33.4-1.4-33.9Z"/>
</svg>