<?xml version="1.0" encoding="UTF-8"?>
<svg id="Vrstva_1" xmlns="http://www.w3.org/2000/svg" version="1.1" viewBox="0 0 553 595.3">
  <!-- Generator: Adobe Illustrator 29.7.1, SVG Export Plug-In . SVG Version: 2.1.1 Build 8)  -->
  <defs>
    <style>
      .st0 {
        fill: #565656;
        stroke: #fff;
        stroke-miterlimit: 10;
        stroke-width: 1.4px;
      }
    </style>
  </defs>
  <path class="st0" d="M480.1,358.9H81.7v180.1c0,4.2-4.4,5.4-7.8,5.8-7.9.7-29.9,1.1-37.3,0s-4.9-1.9-5.5-4.9v-253.9c74.3-72.2,147.5-146,222.4-217.7,5.8-5.7,17.2-17.7,22.9-21.8s5.4-2.8,9.3,0,16.2,15.4,21.8,20.7c75.3,72,148.8,146.1,223.4,218.6v253.9c-1.1,4.2-3.7,4.6-7.5,5-7.9.7-29.9,1.1-37.3,0s-5.8-2.6-5.8-4.6v-181.3ZM509.3,282.1L281.3,60.1,52.6,282.1h19.1c11.9-10.8,23.7-22,35.4-33.1,53.2-51.3,104.7-105.4,159.3-155.1,1.7-1.5,10.8-10,11.5-10.4,5.5-2.5,12.9,6,17.2,9.8,54.5,49.5,105.8,103.6,158.7,154.7,11.9,11.5,24.1,23,36.3,34.2h19.1ZM274.7,261.3V103.5l-53.9,53.4,53.9,104.3h0ZM287.1,103.5v157.8l53.9-104.3-53.9-53.4h0ZM206.2,169.5v112.6h64.3l-59.2-116.2c-1.1-.8-5,2.9-5.1,3.6h0ZM355.6,282.1v-112.6c0-.3-4-4.6-5.1-3.6l-59.2,116.2h64.3ZM192.7,272.8v-89.3l-46.7,45.2,46.7,44.1ZM369.2,272.8l46.7-45.1-46.7-44.1v89.3h0ZM183.4,282.1l-46.3-44.5-12.9,11.9v32.7h59.2ZM437.7,282.1v-32.7l-12.9-11.9-46.3,44.5h59.2,0ZM470.8,282.1l-20.8-20.8v20.8h20.8ZM111.8,262.4c-1.8-.4-2.1.7-3.2,1.5-6,4.6-12.1,12.8-17.6,18.2h20.8v-19.7h0ZM518.5,294.6H43.3v19.7h475.3v-19.7ZM69.2,326.7h-25.9v205.5h25.9v-205.5h0ZM480.1,326.7H81.7v19.7h398.5v-19.7ZM518.5,326.7h-25.9v205.5h25.9v-205.5h0Z"/>
</svg>