<?xml version="1.0" encoding="UTF-8"?>
<svg id="Vrstva_1" xmlns="http://www.w3.org/2000/svg" version="1.1" viewBox="0 0 553 387.5">
  <!-- Generator: Adobe Illustrator 29.7.1, SVG Export Plug-In . SVG Version: 2.1.1 Build 8)  -->
  <defs>
    <style>
      .st0 {
        fill: #565656;
        stroke: #fff;
        stroke-miterlimit: 10;
        stroke-width: 1.4px;
      }
    </style>
  </defs>
  <path class="st0" d="M535.6,240.8v54.6h-64v37.8l-.9.9h-15v-38.7H105.3v38.7h-16.4v-38.7H25.5v-54.6h510.1ZM519.8,256H41.3v23.5h478.4v-23.5h0Z"/>
  <polygon class="st0" points="503.9 68.9 503.9 232.6 488.1 232.6 488.1 84.7 73.7 84.7 73.7 233.1 58.1 233.1 57.2 232.3 57.2 68.9 503.9 68.9"/>
  <path class="st0" d="M472.2,233.1h-16.4v-20.2c0-8.3-13.5-19.3-22-18.5H126.1c-8.1-.2-20.9,10.5-20.9,18.5v20.2h-16.4v-17.9c0-16.7,15.5-33.1,31.7-35.8,106.5-1.4,213.5-1.4,320,0,16.1,2.8,31.7,19.2,31.7,35.8v17.9Z"/>
  <path class="st0" d="M272.6,170.4h-16.4v-22.6c0-4-8.5-9.8-12.6-9.1-25,1.4-52.1-1.9-76.9,0-4.5.3-9,1.4-11.6,5.5-2.5,4.1-2.3,4.7-2.3,5.4v20.8h-15.8v-22c0-10.3,11.6-22.4,21.7-24.1,27.6-.2,57.9-2.7,85.4-.9,11.1.7,21.4,5.7,26,16.2,4.6,10.6,2.4,6.3,2.4,7.5v23.2h0Z"/>
  <path class="st0" d="M424.1,170.4h-16.4v-22c0-.2-1.5-3.5-1.8-4-2.4-3.8-6.5-5.2-10.8-5.7-25,1.2-51.5-1.6-76.3,0-4.9.3-9.7,1.3-12.5,5.7s-1.8,4-1.8,4.6v21.4h-15.8v-19.7l.8-5.1c3.5-14,14.2-21.3,28.3-22.1,27.2-1.7,57.1.8,84.4.8,10.5,1.7,22.1,13.4,22.1,24.2v22h-.1Z"/>
</svg>