<?xml version="1.0" encoding="UTF-8"?>
<svg id="Vrstva_1" xmlns="http://www.w3.org/2000/svg" version="1.1" viewBox="0 0 553 273.4">
  <!-- Generator: Adobe Illustrator 29.7.1, SVG Export Plug-In . SVG Version: 2.1.1 Build 8)  -->
  <defs>
    <style>
      .st0 {
        fill: #565656;
        stroke: #fff;
        stroke-miterlimit: 10;
        stroke-width: .1px;
      }
    </style>
  </defs>
  <path class="st0" d="M398.3,98.1c1.9.4,3.7,3,3.9,4.9.4,3.8.5,15.4,0,18.9s-2.5,4.2-3.9,4.2h-29.4l-.5.5v14.9l.5.5h42.2c1.2,0,3.7,2.5,3.9,3.9-.5,6.3.8,13.8,0,19.9-.2,2-3,4.5-4.9,4.5h-13v38.8h72.6v-16.4l-19.3-18.6c-7.3,3.9-18,2.7-22.4-5-2.9-4.9-4.9-16.3-5-22-.1-4.6,1.7-5.4,5.9-5.3,13.3.6,32.4,4.8,28.4,22.4-.3,1.2-1.8,3.9-1.4,4.6l13.4,12.5v-26.7c-9-1.5-14.7-10-12.7-18.9,1.2-5.1,7.8-15.4,11.5-19.2s4.5-2.8,6.9-.5c3.9,3.8,11.7,16.7,12.1,22,.6,6.6-3.2,14.9-10.1,16.3v27.7l11.8-13c-3.4-6.2-3.4-14.9,1.9-20s16.8-6.3,23-6.8,7.2-.6,7.3,3.9c.1,5.3-2.3,17.8-4.8,22.6s-10.6,9.1-17.2,7.5-4.2-1.9-4.7-1.7l-17.2,18.9v15.4h43.9v7.8H31.9v-7.8h41.6v-13l-14.1-14c-7.8,4.3-18.2,2.7-22.6-5.4s-5.1-17.3-4.9-22.8c.1-3.9,3.6-4,6.6-3.9,6.2.3,19,2.5,23.6,6.7s6.1,14.2,2.7,20l8.7,9.3v-31.2l-14.3-14.3c-7.3,4.1-17.9,2.4-22.3-5.2s-5.2-17.8-5-23,2.7-3.7,5.5-3.5c6.4.4,20.2,3.4,25.1,7.7s5.6,13.5,2.2,19l8.7,9v-36c-3.6-1.5-6.9-3-9.5-6.1-7.1-8.6-1.7-17.3,3.6-25s5.3-7.7,6.9-9.1c4.7-4.1,9.1,3.7,11.4,7.1s7.2,11.7,7.4,16.9c.4,8.4-5.5,13.3-12.8,15.7v36.1l9.1-8.7c-2.9-5.7-3.4-12.6.7-17.8s14.9-7.3,21.2-8.2c10.2-1.5,11-1.9,9.9,8.8-.6,5.7-2.4,15.1-6.2,19.5-4.6,5.3-13.4,6.4-19.3,2.8h-.4c0,0-14.5,14.3-14.5,14.3v31.6l9-9.6c-4.8-9.1-2.2-19,7.5-23,4.9-2,15.9-3.9,21.1-3.8,2.7,0,3.6,2.9,3.6,5.2-.2,6-2,16.9-5,22.1-4.3,7.6-14.2,9.2-21.5,5.2l-14.7,14v13h70.3v-38.8h-13c-2.4,0-5-2.5-5.2-4.9-.4-3.7-.5-15.3,0-18.9s2.4-4.6,3.9-4.6h42.7v-15.9h-27.2c0,0-1.3-.7-1.5-.9-1.4-.9-2.2-2.4-2.4-4-.4-3.8-.5-15.4,0-18.9s2.4-4.2,3.5-4.2h27l.5-.5v-15.4h-26.9c-1.6,0-3.9-2.7-4.1-4.3-.6-3.6-.5-15,0-18.8.3-3,2.1-4.6,4.9-5.2l244.7.2c2.2.6,3.8,2.3,4.1,4.7.7,6-.5,13.1,0,19.2,0,1.3-2.9,4.2-3.9,4.2h-29.4l-.5.5v14.9l.5.5h29.4ZM394.4,61.6h-238.6v12.7l.5.5h237.5l.5-.5v-12.7ZM77.3,77.9c-3.9,5.6-12.3,13.9-5.5,20.4,6.1,5.9,16.1-.2,13.5-8.4s-4.1-7.5-6-9.9-1.6-2.1-2-2.1ZM360.6,82.2h-173.2l-.5.5v14.9l.5.5h173.2v-15.9ZM394.4,105.5h-238l-.5.5v12.2l.5.5h238v-13.2ZM40.5,116.3l-.4.7c.9,5,1.5,13.8,6.2,16.8s14.4-2.7,12.1-9.7-12.3-6.6-17.9-7.8ZM114,116.3c-7.2,1.2-19.5,1.5-18.6,11.6.3,3.5,3.4,6.6,6.9,6.9,10.4.9,10.6-11.3,11.7-18.6ZM471.6,124.8c-.8,0-7.5,11-8,12.6-2.3,8.1,8.1,13.6,13.9,7.8s-1.9-15.2-5.9-20.4ZM360.6,126.1h-173.2l-.5.5v14.9l.5.5h173.2v-15.9ZM407.3,149.4H140.7v13.2h266.6v-13.2ZM430.9,150.1c1,4.9,1.6,15.4,6.7,17.8s14.1-3.3,11.5-10.5c-2.2-6.2-12.6-6.5-18.2-7.3ZM512.7,150.1c-5.4.8-16,1.3-18.1,7.4-3.5,10.4,10.8,15.8,15.1,6.3,1.9-4.1,2.3-9.3,3-13.7ZM114,157.9c-4.4.5-9.7,1.1-13.7,3-9.1,4.1-4.7,17.5,5.3,15.4,7.2-1.5,7.5-12.7,8.4-18.4ZM40,158.2c1.2,5.3,1.4,15.6,7.2,18,8.5,3.5,15.5-7.1,9.2-13.6-3-3.1-12.2-4-16.4-4.4ZM389.4,170.4h-230.8v38.8h230.3l.5-.5v-38.3Z"/>
</svg>